<svg width="24" height="26" viewBox="0 0 24 26" fill="none" xmlns="http://www.w3.org/2000/svg">
<path d="M3.25 25.8098C2.5625 25.8098 1.97396 25.5648 1.48438 25.0747C0.994792 24.5846 0.75 23.9955 0.75 23.3073V5.78979C0.75 5.10161 0.994792 4.51248 1.48438 4.0224C1.97396 3.53233 2.5625 3.28729 3.25 3.28729H4.5V0.78479H7V3.28729H17V0.78479H19.5V3.28729H20.75C21.4375 3.28729 22.026 3.53233 22.5156 4.0224C23.0052 4.51248 23.25 5.10161 23.25 5.78979V23.3073C23.25 23.9955 23.0052 24.5846 22.5156 25.0747C22.026 25.5648 21.4375 25.8098 20.75 25.8098H3.25ZM3.25 23.3073H20.75V10.7948H3.25V23.3073ZM3.25 8.2923H20.75V5.78979H3.25V8.2923ZM12 15.7998C11.6458 15.7998 11.349 15.6799 11.1094 15.4401C10.8698 15.2002 10.75 14.9031 10.75 14.5486C10.75 14.194 10.8698 13.8969 11.1094 13.657C11.349 13.4172 11.6458 13.2973 12 13.2973C12.3542 13.2973 12.651 13.4172 12.8906 13.657C13.1302 13.8969 13.25 14.194 13.25 14.5486C13.25 14.9031 13.1302 15.2002 12.8906 15.4401C12.651 15.6799 12.3542 15.7998 12 15.7998ZM7 15.7998C6.64583 15.7998 6.34896 15.6799 6.10938 15.4401C5.86979 15.2002 5.75 14.9031 5.75 14.5486C5.75 14.194 5.86979 13.8969 6.10938 13.657C6.34896 13.4172 6.64583 13.2973 7 13.2973C7.35417 13.2973 7.65104 13.4172 7.89062 13.657C8.13021 13.8969 8.25 14.194 8.25 14.5486C8.25 14.9031 8.13021 15.2002 7.89062 15.4401C7.65104 15.6799 7.35417 15.7998 7 15.7998ZM17 15.7998C16.6458 15.7998 16.349 15.6799 16.1094 15.4401C15.8698 15.2002 15.75 14.9031 15.75 14.5486C15.75 14.194 15.8698 13.8969 16.1094 13.657C16.349 13.4172 16.6458 13.2973 17 13.2973C17.3542 13.2973 17.651 13.4172 17.8906 13.657C18.1302 13.8969 18.25 14.194 18.25 14.5486C18.25 14.9031 18.1302 15.2002 17.8906 15.4401C17.651 15.6799 17.3542 15.7998 17 15.7998ZM12 20.8048C11.6458 20.8048 11.349 20.6849 11.1094 20.4451C10.8698 20.2053 10.75 19.9081 10.75 19.5536C10.75 19.199 10.8698 18.9019 11.1094 18.662C11.349 18.4222 11.6458 18.3023 12 18.3023C12.3542 18.3023 12.651 18.4222 12.8906 18.662C13.1302 18.9019 13.25 19.199 13.25 19.5536C13.25 19.9081 13.1302 20.2053 12.8906 20.4451C12.651 20.6849 12.3542 20.8048 12 20.8048ZM7 20.8048C6.64583 20.8048 6.34896 20.6849 6.10938 20.4451C5.86979 20.2053 5.75 19.9081 5.75 19.5536C5.75 19.199 5.86979 18.9019 6.10938 18.662C6.34896 18.4222 6.64583 18.3023 7 18.3023C7.35417 18.3023 7.65104 18.4222 7.89062 18.662C8.13021 18.9019 8.25 19.199 8.25 19.5536C8.25 19.9081 8.13021 20.2053 7.89062 20.4451C7.65104 20.6849 7.35417 20.8048 7 20.8048ZM17 20.8048C16.6458 20.8048 16.349 20.6849 16.1094 20.4451C15.8698 20.2053 15.75 19.9081 15.75 19.5536C15.75 19.199 15.8698 18.9019 16.1094 18.662C16.349 18.4222 16.6458 18.3023 17 18.3023C17.3542 18.3023 17.651 18.4222 17.8906 18.662C18.1302 18.9019 18.25 19.199 18.25 19.5536C18.25 19.9081 18.1302 20.2053 17.8906 20.4451C17.651 20.6849 17.3542 20.8048 17 20.8048Z" fill="#555555"/>
</svg>
