<svg width="30" height="31" viewBox="0 0 30 31" fill="none" xmlns="http://www.w3.org/2000/svg">
<g clip-path="url(#clip0_6_91)">
<path d="M26.25 19.3797L25.25 18.5522C24.6437 18.0474 24.3102 17.2854 24.35 16.4961C24.35 16.3206 24.35 16.1325 24.35 15.957C24.35 15.7814 24.35 15.5934 24.35 15.4179C24.3102 14.6285 24.6437 13.8665 25.25 13.3617L26.25 12.5342C26.7245 12.1483 26.8513 11.475 26.55 10.942L25.1 8.43448C24.7927 7.91095 24.1553 7.68377 23.5875 7.89537L22.3375 8.34672C21.5998 8.62324 20.7754 8.53497 20.1125 8.10851C19.8187 7.90489 19.5094 7.72464 19.1875 7.56939C18.4841 7.2076 17.9928 6.53346 17.8625 5.75146L17.65 4.49771C17.551 3.88456 17.0192 3.43657 16.4 3.44456H13.525C12.9058 3.43657 12.374 3.88456 12.275 4.49771L12.0625 5.75146C11.9431 6.52359 11.4717 7.19576 10.7875 7.56939C10.4656 7.72464 10.1563 7.90489 9.8625 8.10851C9.19964 8.53497 8.37518 8.62324 7.6375 8.34672L6.3875 7.89537C5.82694 7.6976 5.20504 7.92299 4.9 8.43448L3.45 10.942C3.14866 11.475 3.27553 12.1483 3.75 12.5342L4.75 13.3617C5.35631 13.8665 5.68984 14.6285 5.65 15.4179C5.65 15.5934 5.65 15.7814 5.65 15.957C5.65 16.1325 5.65 16.3206 5.65 16.4961C5.68984 17.2854 5.35631 18.0474 4.75 18.5522L3.75 19.3797C3.27553 19.7656 3.14866 20.439 3.45 20.972L4.9 23.4795C5.20734 24.003 5.8447 24.2302 6.4125 24.0186L7.6625 23.5672C8.40018 23.2907 9.22464 23.379 9.8875 23.8054C10.1813 24.009 10.4906 24.1893 10.8125 24.3445C11.5159 24.7063 12.0072 25.3805 12.1375 26.1625L12.35 27.4162C12.449 28.0294 12.9808 28.4774 13.6 28.4694H16.475C17.0942 28.4774 17.626 28.0294 17.725 27.4162L17.9375 26.1625C18.0678 25.3805 18.5591 24.7063 19.2625 24.3445C19.5844 24.1893 19.8937 24.009 20.1875 23.8054C20.8504 23.379 21.6748 23.2907 22.4125 23.5672L23.6625 24.0186C24.2082 24.1898 24.8002 23.9678 25.1 23.4795L26.55 20.972C26.8513 20.439 26.7245 19.7656 26.25 19.3797ZM15 19.7182C12.9289 19.7182 11.25 18.0342 11.25 15.957C11.25 13.8797 12.9289 12.1957 15 12.1957C17.0711 12.1957 18.75 13.8797 18.75 15.957C18.75 16.9545 18.3549 17.9112 17.6517 18.6166C16.9484 19.3219 15.9946 19.7182 15 19.7182Z" fill="#555555"/>
</g>
<defs>
<clipPath id="clip0_6_91">
<rect width="30" height="30.03" fill="white" transform="translate(0 0.941956)"/>
</clipPath>
</defs>
</svg>
