<svg width="30" height="31" viewBox="0 0 30 31" fill="none" xmlns="http://www.w3.org/2000/svg">
<path d="M8.75 25.3463V11.5513C8.75 10.8631 9 10.2792 9.5 9.79955C10 9.3199 10.5938 9.08008 11.2813 9.08008H25C25.6875 9.08008 26.276 9.32512 26.7656 9.81519C27.2552 10.3053 27.5 10.8944 27.5 11.5826V21.5926L21.25 27.8488H11.25C10.5625 27.8488 9.97396 27.6038 9.48438 27.1137C8.99479 26.6237 8.75 26.0345 8.75 25.3463ZM2.53125 8.14164C2.40625 7.45345 2.54167 6.83304 2.9375 6.2804C3.33334 5.72777 3.875 5.38889 4.5625 5.26376L18.125 2.8551C18.8125 2.72998 19.4323 2.86553 19.9844 3.26176C20.5365 3.65799 20.875 4.2002 21 4.88839L21.3125 6.57758H18.75L18.5313 5.32632L5 7.73498L6.25 14.8046V23.532C5.91667 23.3443 5.63021 23.0941 5.39063 22.7813C5.15104 22.4685 5 22.1139 4.9375 21.7177L2.53125 8.14164ZM11.25 11.5826V25.3463H20V20.3413H25V11.5826H11.25Z" fill="#555555"/>
</svg>
